<?xml version="1.0" encoding="iso-8859-1"?>
<!-- Generator: Adobe Illustrator 19.0.0, SVG Export Plug-In . SVG Version: 6.00 Build 0)  -->
<svg version="1.1" id="Layer_1" xmlns="http://www.w3.org/2000/svg" xmlns:xlink="http://www.w3.org/1999/xlink" x="0px" y="0px"
	 viewBox="0 0 512 512" style="enable-background:new 0 0 512 512;" xml:space="preserve">
<g>
	<g>
		<path d="M507.527,208.179c-0.908-4.782-5.088-8.242-9.955-8.242H261.404c-5.596,0-10.132,4.536-10.132,10.132v97.266
			c0,5.596,4.536,10.132,10.132,10.132h115.967c-11.752,23.149-30.065,42.7-52.671,55.958c-20.729,12.168-44.485,18.599-68.7,18.599
			c-56.417,0-107.615-35.479-127.404-88.296c-5.72-15.213-8.62-31.271-8.62-47.729c0-15.134,2.471-30.009,7.34-44.206
			c18.871-54.919,70.586-91.818,128.685-91.818c25.528,0,50.398,7.11,71.916,20.561c3.684,2.303,8.427,2.001,11.788-0.752
			l79.65-65.209c2.341-1.917,3.703-4.78,3.714-7.804c0.011-3.026-1.332-5.897-3.66-7.83C373.632,20.933,315.599,0,256,0
			C114.841,0,0,114.841,0,256c0,42.345,10.552,84.299,30.516,121.326C75.307,460.396,161.708,512,256,512
			c59.004,0,116.586-20.556,162.139-57.879c44.922-36.807,76.269-88.19,88.261-144.677c3.715-17.449,5.6-35.431,5.6-53.445
			C512,239.906,510.495,223.817,507.527,208.179z M256,20.264c50.746,0,100.257,16.477,140.753,46.628l-64.4,52.724
			c-23.24-13.043-49.482-19.904-76.353-19.904c-61.934,0-117.53,36.511-142.555,92.184l-62.849-51.454
			C91.079,68.767,167.977,20.264,256,20.264z M20.264,256c0-34.585,7.488-67.453,20.924-97.071l64.819,53.067
			c-4.173,14.251-6.295,29.018-6.295,44.004c0,16.43,2.525,32.523,7.502,47.94l-64.412,52.727
			C28.041,325.39,20.264,290.848,20.264,256z M256,491.736c-84.05,0-161.291-44.532-203.565-116.768l62.675-51.305
			c11.504,23.986,28.887,44.597,50.889,60.122c26.427,18.647,57.549,28.504,90,28.504c25.424,0,50.411-6.197,72.719-17.94
			l64.854,53.093C353.689,476.097,305.388,491.736,256,491.736z M486.581,305.23c-10.63,50.067-37.787,95.775-76.714,129.362
			l-62.917-51.508c25.118-18.016,44.552-43.208,55.414-72.195c1.166-3.111,0.732-6.597-1.16-9.327
			c-1.893-2.73-5.005-4.359-8.327-4.359H271.536v-77.003h217.493c1.798,11.78,2.707,23.786,2.707,35.799
			C491.736,272.599,490.002,289.161,486.581,305.23z"/>
	</g>
</g>
<g>
</g>
<g>
</g>
<g>
</g>
<g>
</g>
<g>
</g>
<g>
</g>
<g>
</g>
<g>
</g>
<g>
</g>
<g>
</g>
<g>
</g>
<g>
</g>
<g>
</g>
<g>
</g>
<g>
</g>
</svg>
